<mxfile host="app.diagrams.net" modified="2023-03-06T05:04:43.415Z" agent="5.0 (Windows NT 10.0; Win64; x64) AppleWebKit/537.36 (KHTML, like Gecko) Chrome/110.0.0.0 Safari/537.36" etag="P0aum-HlIFLMVIBG_R6y" version="21.0.2" type="github">
  <diagram name="Page-1" id="ktzmkFNRWbjsOzn0AA7A">
    <mxGraphModel dx="1434" dy="778" grid="1" gridSize="10" guides="1" tooltips="1" connect="1" arrows="1" fold="1" page="1" pageScale="1" pageWidth="850" pageHeight="1100" math="0" shadow="0">
      <root>
        <mxCell id="0" />
        <mxCell id="1" parent="0" />
        <mxCell id="iFsMih8Sz-5aW6i0WabK-1" value="year" style="rounded=1;whiteSpace=wrap;html=1;" vertex="1" parent="1">
          <mxGeometry x="365" y="70" width="120" height="60" as="geometry" />
        </mxCell>
        <mxCell id="iFsMih8Sz-5aW6i0WabK-2" value="divided by 4 evenly&lt;br&gt;(modulo == 0)" style="rounded=1;whiteSpace=wrap;html=1;" vertex="1" parent="1">
          <mxGeometry x="365" y="180" width="120" height="60" as="geometry" />
        </mxCell>
        <mxCell id="iFsMih8Sz-5aW6i0WabK-3" value="" style="strokeWidth=2;html=1;shape=mxgraph.flowchart.annotation_2;align=left;labelPosition=right;pointerEvents=1;rotation=90;" vertex="1" parent="1">
          <mxGeometry x="400" y="80" width="50" height="380" as="geometry" />
        </mxCell>
        <mxCell id="iFsMih8Sz-5aW6i0WabK-4" value="No" style="rounded=1;whiteSpace=wrap;html=1;" vertex="1" parent="1">
          <mxGeometry x="180" y="300" width="120" height="60" as="geometry" />
        </mxCell>
        <mxCell id="iFsMih8Sz-5aW6i0WabK-5" value="&lt;pre style=&quot;box-sizing: inherit; font-family: Consolas, Monaco, &amp;quot;Andale Mono&amp;quot;, &amp;quot;Ubuntu Mono&amp;quot;, monospace; font-size: 14px; margin-top: 0.5em; margin-bottom: 0.5em; border-style: solid; border-image: initial; border-color: var(--clr-color-neutral-400,#ccc); border-width: var(--clr-global-borderwidth,0.05rem); border-radius: 0.3em; color: rgb(248, 248, 242); background: rgb(39, 40, 34); text-shadow: rgba(0, 0, 0, 0.3) 0px 1px; text-align: left; word-break: normal; overflow-wrap: normal; line-height: 1.5; tab-size: 4; hyphens: none; padding: 1em; overflow: auto;&quot; tabindex=&quot;0&quot; class=&quot;language-plaintext&quot;&gt;&lt;code style=&quot;box-sizing: inherit; font-family: Consolas, Monaco, &amp;quot;Andale Mono&amp;quot;, &amp;quot;Ubuntu Mono&amp;quot;, monospace; font-size: 1em; overflow: auto; border-radius: 0.3em; background: none; text-shadow: rgba(0, 0, 0, 0.3) 0px 1px; word-spacing: normal; word-break: normal; overflow-wrap: normal; line-height: 1.5; tab-size: 4; hyphens: none;&quot; class=&quot;language-plaintext&quot;&gt;Not leap year.&lt;/code&gt;&lt;/pre&gt;" style="text;html=1;align=center;verticalAlign=middle;resizable=0;points=[];autosize=1;strokeColor=none;fillColor=none;" vertex="1" parent="1">
          <mxGeometry x="160" y="350" width="160" height="80" as="geometry" />
        </mxCell>
        <mxCell id="iFsMih8Sz-5aW6i0WabK-6" value="Yes" style="rounded=1;whiteSpace=wrap;html=1;" vertex="1" parent="1">
          <mxGeometry x="550" y="300" width="120" height="60" as="geometry" />
        </mxCell>
      </root>
    </mxGraphModel>
  </diagram>
</mxfile>
